<svg width="49" height="49" viewBox="0 0 49 49" fill="none" xmlns="http://www.w3.org/2000/svg">
<path d="M42.1961 23.8009V24.1281L47.7024 17.2167C49.4325 15.0451 49.4325 11.5348 47.7024 9.3632L41.5325 1.62871C39.8024 -0.542902 37.0058 -0.542902 35.2757 1.62871L32.1077 5.60503C31.8944 5.57528 31.6732 5.55545 31.452 5.55545H22.604C19.6731 5.55545 17.2636 8.33193 16.9476 11.9017H16.916V23.8009C16.916 25.9924 18.3301 27.7673 20.076 27.7673C21.8219 27.7673 23.236 25.9924 23.236 23.8009V15.0748H35.8761C39.3679 15.0748 42.1961 18.6248 42.1961 23.0076V23.8009ZM25.764 18.2479V23.8009C25.764 27.7475 23.2202 30.9405 20.076 30.9405C16.9318 30.9405 14.3879 27.7475 14.3879 23.8009V12.0405C11.5518 12.6553 9.18972 15.2434 8.38392 18.8032L7.08041 24.5149L1.29758 31.7734C-0.432527 33.945 -0.432527 37.4553 1.29758 39.6269L7.46751 47.3713C9.19762 49.5429 11.9942 49.5429 13.7243 47.3713L16.7027 43.633C16.7738 43.633 16.8449 43.6429 16.916 43.6429H29.556C31.6495 43.6429 33.348 41.5109 33.348 38.8832C33.348 38.3279 33.269 37.7924 33.1347 37.2966H33.348C35.4416 37.2966 37.1401 35.1647 37.1401 32.5369C37.1401 31.2677 36.7451 30.1174 36.0973 29.2646C38.1276 28.7688 39.6602 26.5278 39.6681 23.8307V23.791C39.6602 20.7369 37.6852 18.2579 35.2441 18.2579H25.764V18.2479Z" fill="white"/>
</svg>
