<svg width="49" height="49" viewBox="0 0 49 49" fill="none" xmlns="http://www.w3.org/2000/svg">
<path d="M24.5 4.08334C13.2423 4.08334 4.08334 13.2423 4.08334 24.5V32.9586C4.08334 35.0493 5.91471 36.75 8.16667 36.75H10.2083C10.7498 36.75 11.2691 36.5349 11.652 36.152C12.0349 35.7691 12.25 35.2498 12.25 34.7083V24.208C12.25 23.6666 12.0349 23.1473 11.652 22.7644C11.2691 22.3815 10.7498 22.1664 10.2083 22.1664H8.3545C9.48967 14.2651 16.2884 8.16667 24.5 8.16667C32.7116 8.16667 39.5103 14.2651 40.6455 22.1664H38.7917C38.2502 22.1664 37.7309 22.3815 37.348 22.7644C36.9651 23.1473 36.75 23.6666 36.75 24.208V36.75C36.75 39.002 34.9186 40.8333 32.6667 40.8333H28.5833V38.7917H20.4167V44.9167H32.6667C37.1706 44.9167 40.8333 41.2539 40.8333 36.75C43.0853 36.75 44.9167 35.0493 44.9167 32.9586V24.5C44.9167 13.2423 35.7577 4.08334 24.5 4.08334Z" fill="white"/>
</svg>
